<svg id="图层_1" data-name="图层 1" xmlns="http://www.w3.org/2000/svg" viewBox="0 0 98.45 53.98"><defs><style>.cls-1{fill:#0d3ffe;}</style></defs><path class="cls-1" d="M350,326.91V312.15a1.54,1.54,0,0,0-1.54-1.54h-7a1.54,1.54,0,0,0-1.53,1.54v33.38H340A20.25,20.25,0,1,0,379.7,339a19.76,19.76,0,0,0-13.77-14A20.35,20.35,0,0,0,350,326.91Zm20.38,18.64a10.23,10.23,0,0,1-20.38-.87v-.62a10.23,10.23,0,1,1,20.38,1.49Z" transform="translate(-295.82 -310.61)"/><rect class="cls-1" x="88.42" y="30.2" width="10.03" height="10.03" rx="1.54"/><rect class="cls-1" x="26.97" y="15.09" width="10.03" height="25.14" rx="1.54"/><rect class="cls-1" y="15.09" width="10.03" height="25.14" rx="1.54"/><rect class="cls-1" x="26.97" width="10.03" height="10.03" rx="1.54"/><circle class="cls-1" cx="18.5" cy="19.47" r="5.01"/></svg>